<svg xmlns="http://www.w3.org/2000/svg" viewBox="0 0 212.61 511.55"><defs><style>.cls-1{fill:#fff;}</style></defs><g id="Camada_2" data-name="Camada 2"><g id="Camada_2-2" data-name="Camada 2"><path class="cls-1" d="M183.15,26.41s-19.33-.34-46.71,43.11C112.27,107.9,57.54,106.24,38.23,91c30.8-39.94,72-52.56,73.46-53-48.38,8.43-68.8,31.86-77.94,44.26C37.24,37.32,74.81,0,120.65,0a86.87,86.87,0,0,1,62.5,26.41Z"/><path class="cls-1" d="M93.72,345.72a8.48,8.48,0,0,1-8.47-8c-3.72-71.5-22-105.49-55.3-167.18l-.62-1.16C-5.61,104.52,4.19,44.14,4.63,41.61a8.49,8.49,0,1,1,16.73,2.85h0c-.1.56-9.14,57.36,22.91,116.83l.62,1.15c33.29,61.77,53.39,99.05,57.31,174.36a8.48,8.48,0,0,1-8,8.91Z"/></g><g id="Camada_4" data-name="Camada 4"><path class="cls-1" d="M199.16,353.46q-2.1-3.72-4.45-7.25a.35.35,0,0,0-.07-.09,61.7,61.7,0,0,0-87.92-13.05A20,20,0,0,1,86,335.24a58.46,58.46,0,0,0-75.83,24.52A103.21,103.21,0,0,0,4.3,375.28,105.6,105.6,0,0,0,0,403.5c-.94,58.29,45.91,106.91,104.2,108a106.33,106.33,0,0,0,95-158.07Zm-48,123.07c1.1-1.14,39.22-38.5,28.37-112.41C179.57,364.12,216.36,444.76,151.2,476.53Z"/></g></g></svg>