<svg width="309" height="48" viewBox="0 0 309 48" fill="none" xmlns="http://www.w3.org/2000/svg">
<g clip-path="url(#clip0_385_19)">
<path d="M17.1856 2.47812C17.1856 2.47812 15.3718 2.44622 12.8026 6.52324C10.5347 10.1245 5.39927 9.96877 3.58736 8.53876C6.4774 4.79109 10.3433 3.60693 10.4803 3.56564C5.94068 4.35665 4.02462 6.55514 3.16699 7.71867C3.49447 3.50184 7.01975 8.05955e-06 11.321 8.05955e-06C12.4148 -0.00152999 13.4977 0.217082 14.5052 0.642822C15.5128 1.06856 16.4243 1.69272 17.1856 2.47812Z" fill="#B3D843"/>
<path d="M8.7941 32.4398C8.59081 32.4399 8.39519 32.3622 8.2474 32.2226C8.09961 32.083 8.01085 31.8921 7.99934 31.6891C7.65029 24.9801 5.93503 21.7908 2.81041 16.0022L2.75223 15.8934C-0.526275 9.80741 0.393283 4.14181 0.434569 3.90441C0.44907 3.7986 0.484698 3.69679 0.539334 3.60503C0.59397 3.51327 0.6665 3.43342 0.75261 3.37025C0.83872 3.30708 0.936653 3.26187 1.04059 3.2373C1.14452 3.21274 1.25233 3.20932 1.35761 3.22726C1.46289 3.24519 1.56349 3.28411 1.65343 3.3417C1.74337 3.39929 1.82081 3.47438 1.88114 3.5625C1.94148 3.65062 1.98348 3.74997 2.00466 3.85465C2.02583 3.95933 2.02574 4.06719 2.00439 4.17183C1.995 4.22438 1.14676 9.55406 4.15409 15.1343L4.21226 15.2422C7.33595 21.0382 9.22198 24.5363 9.5898 31.6028C9.60081 31.8131 9.52797 32.0193 9.38726 32.176C9.24655 32.3327 9.04944 32.4272 8.83914 32.4389L8.7941 32.4398Z" fill="#B3D843"/>
<path d="M18.6878 33.166C18.5564 32.9333 18.4172 32.7066 18.2702 32.4858C18.2685 32.4826 18.2663 32.4798 18.2636 32.4773C17.8117 31.8433 17.2366 31.3069 16.5725 30.9003C15.9085 30.4937 15.1693 30.2252 14.3991 30.1108C13.629 29.9965 12.8436 30.0387 12.0901 30.2349C11.3367 30.4312 10.6305 30.7774 10.0139 31.2528C9.73981 31.4621 9.41336 31.5918 9.07039 31.6277C8.72741 31.6637 8.38117 31.6044 8.06968 31.4564C6.81259 30.8688 5.37953 30.7795 4.05921 31.2065C2.73889 31.6334 1.62943 32.5448 0.95436 33.7572C0.731975 34.227 0.547781 34.714 0.403563 35.2135C0.149841 36.0738 0.0141084 36.9646 8.37268e-05 37.8614C-0.0881188 43.3309 4.30793 47.8931 9.77743 47.9953C11.5325 48.0303 13.2657 47.6016 14.8021 46.7526C16.3384 45.9036 17.6236 44.6642 18.5279 43.1596C19.4321 41.6551 19.9234 39.9385 19.9521 38.1834C19.9809 36.4282 19.546 34.6966 18.6915 33.1632L18.6878 33.166ZM14.1838 44.714C14.287 44.607 17.8639 41.1015 16.8458 34.1663C16.8496 34.1663 20.3017 41.733 14.1876 44.714H14.1838Z" fill="#FC4A42"/>
</g>
<path d="M41.4777 20.66C38.1337 20.66 35.4457 18.228 35.4457 14.916C35.4457 11.668 38.0217 9.14 41.4457 9.14C43.8937 9.14 45.8457 10.468 45.8457 12.004C45.8457 12.788 45.3177 13.348 44.5657 13.348C43.8137 13.348 43.2537 12.804 43.2537 12.068C44.0537 12.068 44.6297 11.668 44.6297 11.092C44.6297 10.34 43.6377 9.7 42.1977 9.7C39.6377 9.7 37.9577 11.652 37.9577 14.9C37.9577 18.132 39.6057 20.1 42.1977 20.1C43.7657 20.1 44.9497 19.38 45.5897 18.228L45.9417 18.452C45.2537 19.716 43.5737 20.66 41.4777 20.66ZM52.625 20.5C52.881 20.228 53.041 19.668 53.041 19.124V14.42C53.041 13.668 52.513 13.092 51.793 13.092C51.041 13.092 50.305 13.652 49.953 14.484V19.124C49.953 19.668 50.113 20.228 50.369 20.5H47.073C47.329 20.228 47.505 19.668 47.505 19.124V10.724C47.505 10.18 47.329 9.62 47.073 9.348L49.953 8.82V13.828C50.513 12.932 51.569 12.34 52.753 12.34C54.337 12.34 55.489 13.476 55.489 14.98V19.124C55.489 19.668 55.665 20.228 55.921 20.5H52.625ZM63.7643 17.284C64.4843 17.284 64.9323 17.828 64.9323 18.5C64.9323 19.716 63.3963 20.66 61.4123 20.66C58.7243 20.66 56.8203 18.868 56.8203 16.484C56.8203 14.1 58.7083 12.34 61.0923 12.34C63.3803 12.34 65.0443 14.02 65.0443 16.228H59.3323C59.3323 18.868 60.3723 20.148 62.1003 20.148C62.9483 20.148 63.6363 19.828 63.6363 19.268C63.6363 18.804 63.1723 18.468 62.5323 18.468C62.5323 17.812 63.0603 17.284 63.7643 17.284ZM61.0923 12.66C60.0523 12.66 59.3963 14.02 59.3323 15.908H62.7403C62.6923 13.892 62.1003 12.66 61.0923 12.66ZM71.1766 12.34C72.2486 12.34 73.0006 13.044 73.0006 13.988C73.0006 14.74 72.5206 15.252 71.8006 15.252C71.0806 15.252 70.5526 14.724 70.5526 14.036C71.1926 14.036 71.5926 13.764 71.5926 13.348C71.5926 13.028 71.3526 12.852 70.9366 12.852C70.0886 12.852 69.3046 13.572 68.9686 14.596V19.124C68.9686 19.668 69.1926 20.228 69.5286 20.5H66.0886C66.3446 20.228 66.5206 19.668 66.5206 19.124V14.324C66.5206 13.78 66.3446 13.22 66.0886 12.948L68.9686 12.42V13.876C69.3846 12.932 70.2006 12.34 71.1766 12.34ZM78.6922 12.34C79.7642 12.34 80.5162 13.044 80.5162 13.988C80.5162 14.74 80.0362 15.252 79.3162 15.252C78.5962 15.252 78.0682 14.724 78.0682 14.036C78.7082 14.036 79.1082 13.764 79.1082 13.348C79.1082 13.028 78.8682 12.852 78.4522 12.852C77.6042 12.852 76.8202 13.572 76.4842 14.596V19.124C76.4842 19.668 76.7082 20.228 77.0442 20.5H73.6042C73.8602 20.228 74.0362 19.668 74.0362 19.124V14.324C74.0362 13.78 73.8602 13.22 73.6042 12.948L76.4842 12.42V13.876C76.9002 12.932 77.7162 12.34 78.6922 12.34ZM87.1611 12.5H89.2571C88.7931 12.884 88.2651 13.62 87.9131 14.42L84.1851 22.948C83.7371 23.94 83.1131 24.18 82.5371 24.18C81.5771 24.18 80.8411 23.572 80.8411 22.804C80.8411 22.148 81.3531 21.652 82.0411 21.652C82.7131 21.652 83.2091 22.148 83.2091 22.82C82.7931 22.82 82.5051 23.012 82.5051 23.268C82.5051 23.492 82.6811 23.636 82.9051 23.636C83.2411 23.636 83.5771 23.364 83.7691 22.932L84.6651 20.868L81.8331 14.388C81.4491 13.556 80.9851 12.82 80.6331 12.5H84.5211C84.1531 12.916 84.0891 13.668 84.4091 14.42L85.9451 17.956L87.5131 14.34C87.8011 13.684 87.5931 12.98 87.1611 12.5ZM95.6183 20.66C92.2743 20.66 89.5863 18.228 89.5863 14.916C89.5863 11.668 92.1623 9.14 95.5863 9.14C98.0343 9.14 99.9863 10.468 99.9863 12.004C99.9863 12.788 99.4583 13.348 98.7063 13.348C97.9543 13.348 97.3943 12.804 97.3943 12.068C98.1943 12.068 98.7703 11.668 98.7703 11.092C98.7703 10.34 97.7783 9.7 96.3383 9.7C93.7783 9.7 92.0983 11.652 92.0983 14.9C92.0983 18.132 93.7463 20.1 96.3383 20.1C97.9063 20.1 99.0903 19.38 99.7303 18.228L100.082 18.452C99.3943 19.716 97.7143 20.66 95.6183 20.66ZM109.518 20.5H106.798C106.702 20.276 106.638 19.828 106.638 19.38C106.046 20.148 104.942 20.66 103.774 20.66C102.206 20.66 101.07 19.716 101.07 18.436C101.07 17.028 102.414 16.084 104.366 16.084C105.262 16.084 106.19 16.292 106.638 16.596V14.66C106.638 13.492 105.886 12.74 104.638 12.74C103.822 12.74 103.262 13.06 103.262 13.572C103.262 13.972 103.598 14.26 104.094 14.26C104.094 14.932 103.614 15.444 102.91 15.444C102.222 15.444 101.694 14.964 101.694 14.26C101.694 13.124 103.086 12.34 105.134 12.34C107.486 12.34 109.086 13.62 109.086 15.3V19.124C109.086 19.668 109.262 20.228 109.518 20.5ZM105.006 19.844C105.646 19.844 106.27 19.492 106.638 18.932V16.948C106.35 16.708 105.838 16.564 105.31 16.564C104.238 16.564 103.582 17.188 103.582 18.228C103.582 19.188 104.126 19.844 105.006 19.844ZM115.661 12.34C116.733 12.34 117.485 13.044 117.485 13.988C117.485 14.74 117.005 15.252 116.285 15.252C115.565 15.252 115.037 14.724 115.037 14.036C115.677 14.036 116.077 13.764 116.077 13.348C116.077 13.028 115.837 12.852 115.421 12.852C114.573 12.852 113.789 13.572 113.453 14.596V19.124C113.453 19.668 113.677 20.228 114.013 20.5H110.573C110.829 20.228 111.005 19.668 111.005 19.124V14.324C111.005 13.78 110.829 13.22 110.573 12.948L113.453 12.42V13.876C113.869 12.932 114.685 12.34 115.661 12.34ZM124.733 17.284C125.453 17.284 125.901 17.828 125.901 18.5C125.901 19.716 124.365 20.66 122.381 20.66C119.693 20.66 117.789 18.868 117.789 16.484C117.789 14.1 119.677 12.34 122.061 12.34C124.349 12.34 126.013 14.02 126.013 16.228H120.301C120.301 18.868 121.341 20.148 123.069 20.148C123.917 20.148 124.605 19.828 124.605 19.268C124.605 18.804 124.141 18.468 123.501 18.468C123.501 17.812 124.029 17.284 124.733 17.284ZM122.061 12.66C121.021 12.66 120.365 14.02 120.301 15.908H123.709C123.661 13.892 123.069 12.66 122.061 12.66Z" fill="white"/>
<path d="M40.7457 39.64C37.8337 39.64 35.5937 37.484 35.5937 34.6C35.5937 31.772 37.7637 29.56 40.7457 29.56C42.8877 29.56 44.5257 30.708 44.5257 31.94C44.5257 32.458 44.2317 32.808 43.7697 32.808C43.3217 32.808 42.9717 32.486 42.9717 32.038C43.4477 32.038 43.7557 31.8 43.7557 31.436C43.7557 30.708 42.5377 29.84 40.8297 29.84C38.2817 29.84 36.5597 31.73 36.5597 34.586C36.5597 37.47 38.3097 39.36 40.8437 39.36C42.4257 39.36 43.6997 38.632 44.3437 37.512L44.6517 37.708C44.0497 38.814 42.5517 39.64 40.7457 39.64ZM51.2926 39.22C52.0346 39.22 52.7766 38.702 53.1406 37.932V39.5H46.4206C46.5886 39.332 46.7006 38.982 46.7006 38.646V30.554C46.7006 30.218 46.5886 29.868 46.4206 29.7H47.8906C47.7226 29.868 47.6106 30.218 47.6106 30.554V39.22H51.2926ZM54.8698 39.5C55.0378 39.332 55.1498 38.982 55.1498 38.646V30.554C55.1498 30.218 55.0378 29.868 54.8698 29.7H56.3398C56.1718 29.868 56.0598 30.218 56.0598 30.554V38.646C56.0598 38.982 56.1718 39.332 56.3398 39.5H54.8698ZM65.992 29.7H67.476C67.126 29.924 66.902 30.386 66.902 30.834V39.5H66.426L59.244 30.232V38.366C59.244 38.814 59.482 39.276 59.818 39.5H58.348C58.684 39.276 58.908 38.814 58.908 38.366V30.554C58.908 30.218 58.74 29.868 58.488 29.7H59.958L66.566 38.226V30.834C66.566 30.386 66.342 29.924 65.992 29.7ZM69.4577 39.5C69.6257 39.332 69.7377 38.982 69.7377 38.646V30.554C69.7377 30.218 69.6257 29.868 69.4577 29.7H70.9277C70.7597 29.868 70.6477 30.218 70.6477 30.554V38.646C70.6477 38.982 70.7597 39.332 70.9277 39.5H69.4577ZM77.9059 39.64C74.9939 39.64 72.7539 37.484 72.7539 34.6C72.7539 31.772 74.9239 29.56 77.9059 29.56C80.0479 29.56 81.6859 30.708 81.6859 31.94C81.6859 32.458 81.3919 32.808 80.9299 32.808C80.4819 32.808 80.1319 32.486 80.1319 32.038C80.6079 32.038 80.9159 31.8 80.9159 31.436C80.9159 30.708 79.6979 29.84 77.9899 29.84C75.4419 29.84 73.7199 31.73 73.7199 34.586C73.7199 37.47 75.4699 39.36 78.0039 39.36C79.5859 39.36 80.8599 38.632 81.5039 37.512L81.8119 37.708C81.2099 38.814 79.7119 39.64 77.9059 39.64ZM90.058 39.5C90.296 39.29 90.324 38.786 90.072 38.254L89.316 36.504H84.234L83.562 38.044C83.296 38.646 83.338 39.22 83.674 39.5H82.134C82.428 39.346 82.806 38.814 83.156 38.016L86.81 29.7H87.3L91.094 38.38C91.318 38.898 91.612 39.346 91.85 39.5H90.058ZM84.36 36.224H89.19L86.768 30.666L84.36 36.224ZM100.869 29.7C103.823 29.7 106.049 31.814 106.049 34.6C106.049 37.386 103.823 39.5 100.869 39.5H97.0613C97.2293 39.332 97.3413 38.982 97.3413 38.646V30.554C97.3413 30.218 97.2293 29.868 97.0613 29.7H100.869ZM100.729 39.22C103.347 39.22 105.083 37.386 105.083 34.6C105.083 31.814 103.347 29.98 100.729 29.98H98.2513V39.22H100.729ZM113.125 39.22C113.853 39.22 114.595 38.702 114.959 37.932V39.5H107.889C108.057 39.332 108.169 38.982 108.169 38.646V30.554C108.169 30.218 108.057 29.868 107.889 29.7H114.819V31.254C114.455 30.498 113.713 29.98 112.985 29.98H109.079V34.39H112.285C112.845 34.39 113.419 34.11 113.699 33.676V35.384C113.419 34.95 112.845 34.67 112.285 34.67H109.079V39.22H113.125ZM125.84 39.22C126.568 39.22 127.31 38.702 127.674 37.932V39.5H120.604C120.772 39.332 120.884 38.982 120.884 38.646V30.554C120.884 30.218 120.772 29.868 120.604 29.7H127.534V31.254C127.17 30.498 126.428 29.98 125.7 29.98H121.794V34.39H125C125.56 34.39 126.134 34.11 126.414 33.676V35.384C126.134 34.95 125.56 34.67 125 34.67H121.794V39.22H125.84ZM132.628 39.64C130.64 39.64 129.114 38.674 129.114 37.512C129.114 36.966 129.45 36.63 129.898 36.63C130.332 36.63 130.654 36.966 130.654 37.4C130.276 37.4 130.024 37.624 130.024 38.016C130.024 38.814 131.032 39.36 132.474 39.36C134.224 39.36 135.414 38.534 135.414 37.414C135.414 36.182 134.042 35.608 132.488 34.992C131.088 34.446 129.366 33.76 129.366 32.108C129.366 30.624 130.766 29.56 132.656 29.56C134.392 29.56 135.736 30.456 135.736 31.562C135.736 32.08 135.428 32.416 134.994 32.416C134.546 32.416 134.196 32.08 134.196 31.646C134.644 31.646 134.924 31.436 134.924 31.044C134.924 30.33 134.014 29.84 132.796 29.84C131.2 29.84 130.066 30.694 130.066 31.786C130.066 33.018 131.536 33.634 132.95 34.18C134.588 34.81 136.114 35.398 136.114 37.036C136.114 38.646 134.644 39.64 132.628 39.64ZM142.361 29.7C144.349 29.7 145.861 31.002 145.861 32.752C145.861 34.502 144.349 35.804 142.361 35.804H139.253V38.646C139.253 38.982 139.421 39.332 139.673 39.5H138.063C138.231 39.332 138.343 38.982 138.343 38.646V30.554C138.343 30.218 138.231 29.868 138.063 29.7H142.361ZM142.207 35.524C143.831 35.524 144.895 34.418 144.895 32.752C144.895 31.086 143.831 29.98 142.207 29.98H139.253V35.524H142.207ZM152.787 39.22C153.515 39.22 154.257 38.702 154.621 37.932V39.5H147.551C147.719 39.332 147.831 38.982 147.831 38.646V30.554C147.831 30.218 147.719 29.868 147.551 29.7H154.481V31.254C154.117 30.498 153.375 29.98 152.647 29.98H148.741V34.39H151.947C152.507 34.39 153.081 34.11 153.361 33.676V35.384C153.081 34.95 152.507 34.67 151.947 34.67H148.741V39.22H152.787ZM160.908 39.64C157.996 39.64 155.756 37.484 155.756 34.6C155.756 31.772 157.926 29.56 160.908 29.56C163.05 29.56 164.688 30.708 164.688 31.94C164.688 32.458 164.394 32.808 163.932 32.808C163.484 32.808 163.134 32.486 163.134 32.038C163.61 32.038 163.918 31.8 163.918 31.436C163.918 30.708 162.7 29.84 160.992 29.84C158.444 29.84 156.722 31.73 156.722 34.586C156.722 37.47 158.472 39.36 161.006 39.36C162.588 39.36 163.862 38.632 164.506 37.512L164.814 37.708C164.212 38.814 162.714 39.64 160.908 39.64ZM166.583 39.5C166.751 39.332 166.863 38.982 166.863 38.646V30.554C166.863 30.218 166.751 29.868 166.583 29.7H168.053C167.885 29.868 167.773 30.218 167.773 30.554V38.646C167.773 38.982 167.885 39.332 168.053 39.5H166.583ZM177.271 39.5C177.509 39.29 177.537 38.786 177.285 38.254L176.529 36.504H171.447L170.775 38.044C170.509 38.646 170.551 39.22 170.887 39.5H169.347C169.641 39.346 170.019 38.814 170.369 38.016L174.023 29.7H174.513L178.307 38.38C178.531 38.898 178.825 39.346 179.063 39.5H177.271ZM171.573 36.224H176.403L173.981 30.666L171.573 36.224ZM185.304 39.22C186.046 39.22 186.788 38.702 187.152 37.932V39.5H180.432C180.6 39.332 180.712 38.982 180.712 38.646V30.554C180.712 30.218 180.6 29.868 180.432 29.7H181.902C181.734 29.868 181.622 30.218 181.622 30.554V39.22H185.304ZM188.882 39.5C189.05 39.332 189.162 38.982 189.162 38.646V30.554C189.162 30.218 189.05 29.868 188.882 29.7H190.352C190.184 29.868 190.072 30.218 190.072 30.554V38.646C190.072 38.982 190.184 39.332 190.352 39.5H188.882ZM196.518 29.7C199.472 29.7 201.698 31.814 201.698 34.6C201.698 37.386 199.472 39.5 196.518 39.5H192.71C192.878 39.332 192.99 38.982 192.99 38.646V30.554C192.99 30.218 192.878 29.868 192.71 29.7H196.518ZM196.378 39.22C198.996 39.22 200.732 37.386 200.732 34.6C200.732 31.814 198.996 29.98 196.378 29.98H193.9V39.22H196.378ZM209.824 39.5C210.062 39.29 210.09 38.786 209.838 38.254L209.082 36.504H204L203.328 38.044C203.062 38.646 203.104 39.22 203.44 39.5H201.9C202.194 39.346 202.572 38.814 202.922 38.016L206.576 29.7H207.066L210.86 38.38C211.084 38.898 211.378 39.346 211.616 39.5H209.824ZM204.126 36.224H208.956L206.534 30.666L204.126 36.224ZM216.793 29.7C219.747 29.7 221.973 31.814 221.973 34.6C221.973 37.386 219.747 39.5 216.793 39.5H212.985C213.153 39.332 213.265 38.982 213.265 38.646V30.554C213.265 30.218 213.153 29.868 212.985 29.7H216.793ZM216.653 39.22C219.271 39.22 221.007 37.386 221.007 34.6C221.007 31.814 219.271 29.98 216.653 29.98H214.175V39.22H216.653ZM229.049 39.22C229.777 39.22 230.519 38.702 230.883 37.932V39.5H223.813C223.981 39.332 224.093 38.982 224.093 38.646V30.554C224.093 30.218 223.981 29.868 223.813 29.7H230.743V31.254C230.379 30.498 229.637 29.98 228.909 29.98H225.003V34.39H228.209C228.769 34.39 229.343 34.11 229.623 33.676V35.384C229.343 34.95 228.769 34.67 228.209 34.67H225.003V39.22H229.049ZM235.837 39.64C233.849 39.64 232.323 38.674 232.323 37.512C232.323 36.966 232.659 36.63 233.107 36.63C233.541 36.63 233.863 36.966 233.863 37.4C233.485 37.4 233.233 37.624 233.233 38.016C233.233 38.814 234.241 39.36 235.683 39.36C237.433 39.36 238.623 38.534 238.623 37.414C238.623 36.182 237.251 35.608 235.697 34.992C234.297 34.446 232.575 33.76 232.575 32.108C232.575 30.624 233.975 29.56 235.865 29.56C237.601 29.56 238.945 30.456 238.945 31.562C238.945 32.08 238.637 32.416 238.203 32.416C237.755 32.416 237.405 32.08 237.405 31.646C237.853 31.646 238.133 31.436 238.133 31.044C238.133 30.33 237.223 29.84 236.005 29.84C234.409 29.84 233.275 30.694 233.275 31.786C233.275 33.018 234.745 33.634 236.159 34.18C237.797 34.81 239.323 35.398 239.323 37.036C239.323 38.646 237.853 39.64 235.837 39.64ZM255.012 30.554V38.646C255.012 38.982 255.124 39.332 255.292 39.5H253.822C253.99 39.332 254.102 38.982 254.102 38.646V30.4L250.028 39.5H249.748L245.66 30.4V38.366C245.66 38.814 245.898 39.276 246.234 39.5H244.764C245.1 39.276 245.324 38.814 245.324 38.366V30.554C245.324 30.218 245.156 29.868 244.904 29.7H246.318L250.168 38.296L254.018 29.7H255.292C255.124 29.868 255.012 30.218 255.012 30.554ZM262.873 39.22C263.601 39.22 264.343 38.702 264.707 37.932V39.5H257.637C257.805 39.332 257.917 38.982 257.917 38.646V30.554C257.917 30.218 257.805 29.868 257.637 29.7H264.567V31.254C264.203 30.498 263.461 29.98 262.733 29.98H258.827V34.39H262.033C262.593 34.39 263.167 34.11 263.447 33.676V35.384C263.167 34.95 262.593 34.67 262.033 34.67H258.827V39.22H262.873ZM270.318 29.7C273.272 29.7 275.498 31.814 275.498 34.6C275.498 37.386 273.272 39.5 270.318 39.5H266.51C266.678 39.332 266.79 38.982 266.79 38.646V30.554C266.79 30.218 266.678 29.868 266.51 29.7H270.318ZM270.178 39.22C272.796 39.22 274.532 37.386 274.532 34.6C274.532 31.814 272.796 29.98 270.178 29.98H267.7V39.22H270.178ZM277.339 39.5C277.507 39.332 277.619 38.982 277.619 38.646V30.554C277.619 30.218 277.507 29.868 277.339 29.7H278.809C278.641 29.868 278.529 30.218 278.529 30.554V38.646C278.529 38.982 278.641 39.332 278.809 39.5H277.339ZM285.787 39.64C282.875 39.64 280.635 37.484 280.635 34.6C280.635 31.772 282.805 29.56 285.787 29.56C287.929 29.56 289.567 30.708 289.567 31.94C289.567 32.458 289.273 32.808 288.811 32.808C288.363 32.808 288.013 32.486 288.013 32.038C288.489 32.038 288.797 31.8 288.797 31.436C288.797 30.708 287.579 29.84 285.871 29.84C283.323 29.84 281.601 31.73 281.601 34.586C281.601 37.47 283.351 39.36 285.885 39.36C287.467 39.36 288.741 38.632 289.385 37.512L289.693 37.708C289.091 38.814 287.593 39.64 285.787 39.64ZM297.939 39.5C298.177 39.29 298.205 38.786 297.953 38.254L297.197 36.504H292.115L291.443 38.044C291.177 38.646 291.219 39.22 291.555 39.5H290.015C290.309 39.346 290.687 38.814 291.037 38.016L294.691 29.7H295.181L298.975 38.38C299.199 38.898 299.493 39.346 299.731 39.5H297.939ZM292.241 36.224H297.071L294.649 30.666L292.241 36.224ZM304.073 39.64C302.085 39.64 300.559 38.674 300.559 37.512C300.559 36.966 300.895 36.63 301.343 36.63C301.777 36.63 302.099 36.966 302.099 37.4C301.721 37.4 301.469 37.624 301.469 38.016C301.469 38.814 302.477 39.36 303.919 39.36C305.669 39.36 306.859 38.534 306.859 37.414C306.859 36.182 305.487 35.608 303.933 34.992C302.533 34.446 300.811 33.76 300.811 32.108C300.811 30.624 302.211 29.56 304.101 29.56C305.837 29.56 307.181 30.456 307.181 31.562C307.181 32.08 306.873 32.416 306.439 32.416C305.991 32.416 305.641 32.08 305.641 31.646C306.089 31.646 306.369 31.436 306.369 31.044C306.369 30.33 305.459 29.84 304.241 29.84C302.645 29.84 301.511 30.694 301.511 31.786C301.511 33.018 302.981 33.634 304.395 34.18C306.033 34.81 307.559 35.398 307.559 37.036C307.559 38.646 306.089 39.64 304.073 39.64Z" fill="white"/>
<defs>
<clipPath id="clip0_385_19">
<rect width="19.9497" height="48" fill="white"/>
</clipPath>
</defs>
</svg>
